<svg width="234" height="52" viewBox="0 0 234 52" fill="none" xmlns="http://www.w3.org/2000/svg">
<g clip-path="url(#clip0_460_335)">
<path d="M14.2182 0H0.03125V31.779H7.34308V17.9504H12.9322V11.9666H7.34308V5.98375H14.2182V0Z" fill="#C32329"/>
<path d="M28.7931 0H18.2055L13.7246 31.779H20.8665L21.4813 25.9287H25.7357L26.3585 31.779H33.5409L28.7931 0ZM25.2099 19.9449H22.0151L23.1232 6.73673H23.835L25.2099 19.9449Z" fill="#C32329"/>
<path d="M52.4675 0H45.5924V15.2909H45.5035L40.8122 0H34.6895V31.779H41.5645V16.3109H41.6534L46.3932 31.779H52.4675V0Z" fill="#C32329"/>
<path d="M69.9302 0H54.3682V5.98375H58.4934V31.779H65.805V5.98375H69.9302V0Z" fill="#C32329"/>
<path d="M84.6429 0H74.0471L69.5747 31.779H76.7087L77.3314 25.9287H81.5855L82.2082 31.779H89.3829L84.6429 0ZM81.0516 19.9449H77.8653L78.9732 6.73673H79.6767L81.0516 19.9449Z" fill="#C32329"/>
<path d="M94.9717 0L90.1836 4.60953V14.1391L95.2793 18.7487L100.512 19.1474V25.796H97.4952V21.5852H90.1836V27.1694L94.923 31.779H103.036L107.824 27.1694V17.5071L102.818 12.8976L97.4952 12.4544V5.98375H100.512V10.2382H107.824V4.60953L102.68 0H94.9717Z" fill="#C32329"/>
<path d="M128.878 0H121.566L118.946 11.4797H118.865L116.244 0H108.932L115.225 18.4826V31.779H122.537V18.4826L128.878 0Z" fill="#C32329"/>
<path d="M150.459 0H143.146V31.779H150.459V0Z" fill="#C32329"/>
<path d="M172.134 0H165.267V15.2909H165.178L160.479 0H154.364V31.779H161.231V16.3109H161.32L166.068 31.779H172.134V0Z" fill="#C32329"/>
<path d="M193.504 4.60953L188.489 0H175.814V31.779H188.756L193.504 27.1694V4.60953ZM186.183 5.98375V25.796H183.126V5.98375H186.183Z" fill="#C32329"/>
<path d="M210.343 0H196.868V31.779H210.521V25.796H204.18V17.9504H209.365V11.9666H204.18V5.98375H210.343V0Z" fill="#C32329"/>
<path d="M230.685 0H223.196L220.802 8.95293H220.713L218.318 0H210.828L216.636 15.2028L210.651 31.779H218.052L220.713 22.5154H220.802L223.73 31.779H231.13L225.145 15.2028L230.685 0Z" fill="#C32329"/>
<path d="M6.86229 46.0644H9.76546C9.78761 46.1973 9.78761 46.3303 9.78761 46.3967C9.78761 47.7929 9.56597 48.9231 9.12279 49.7653C8.72386 50.5188 8.21413 51.0949 7.54931 51.4274C6.90664 51.7819 6.02018 51.9592 4.91211 51.9592C3.47163 51.9592 2.38572 51.5825 1.63224 50.8733C0.923074 50.1642 0.457686 49.2334 0.258234 48.0589C0.103105 47.1281 0.0366211 45.8871 0.0366211 44.2914C0.0366211 42.5629 0.125266 41.1888 0.346879 40.1694C0.590654 38.9062 1.21117 37.9533 2.18627 37.3106C2.93975 36.8231 3.89269 36.5571 5.00076 36.5571C6.59635 36.5571 7.7709 36.956 8.52442 37.7538C8.90115 38.1528 9.18923 38.6403 9.36653 39.1943C9.54382 39.7483 9.65461 40.4354 9.65461 41.2553V41.765H6.75149V41.4991C6.75149 40.7234 6.66285 40.1251 6.5077 39.704C6.26397 39.017 5.77639 38.6846 5.04508 38.6846C4.13647 38.6846 3.58243 39.1943 3.36082 40.2359C3.18353 41.1224 3.09488 42.452 3.09488 44.2471C3.09488 45.9314 3.18353 47.2389 3.33866 48.1253C3.53811 49.2777 4.09214 49.8317 5.02292 49.8317C5.86503 49.8317 6.41906 49.3221 6.66285 48.3026C6.79584 47.7929 6.86229 47.0394 6.86229 46.0644Z" fill="#868686"/>
<path d="M14.0091 42.5628H17.4662V36.8452H20.458V51.6268H17.4662V45.0892H14.0091V51.6268H10.9951V36.8452H14.0091V42.5628Z" fill="#868686"/>
<path d="M22.1948 36.8452H30.461V39.3051H25.1644V42.7845H30.1286V45.1778H25.1644V49.1891H30.6604V51.6268H22.1948V36.8452Z" fill="#868686"/>
<path d="M34.7422 36.8452H38.5318L42.3435 51.6268H39.1966L38.5096 48.4799H34.6314L33.9444 51.6268H30.8418L34.7422 36.8452ZM36.5816 39.3273L35.1189 46.1086H38.0221L36.5816 39.3273Z" fill="#868686"/>
<path d="M41.1704 36.8452H50.6998V39.3716H47.4421V51.6268H44.4725V39.3716H41.1704V36.8452Z" fill="#868686"/>
<path d="M51.314 36.8452H59.5801V39.3051H54.2833V42.7845H59.2479V45.1778H54.2833V49.1891H59.7797V51.6268H51.314V36.8452Z" fill="#868686"/>
<path d="M60.8481 36.8452H65.679C67.0753 36.8452 68.0725 37.0447 68.6711 37.3992C69.7128 38.0641 70.2445 39.1943 70.2445 40.7899C70.2445 42.7622 69.4469 43.9368 67.8291 44.3136C68.7819 44.4465 69.4244 44.8455 69.7347 45.5103C69.9562 45.9757 70.0894 46.6405 70.1338 47.5269C70.1557 47.7264 70.1782 48.3026 70.2001 49.2777C70.2221 49.9647 70.2665 50.4523 70.3333 50.696C70.3772 50.962 70.5104 51.2722 70.7319 51.6268H67.5851C67.4744 51.4274 67.3637 51.0728 67.2968 50.5852C67.2529 50.2528 67.2304 49.4771 67.186 48.2805C67.1416 47.3718 67.0978 46.7735 67.009 46.441C66.8538 45.887 66.5435 45.5546 66.0337 45.4659C65.7903 45.3995 65.4356 45.3773 64.9921 45.3773H63.8178V51.6268H60.8481V36.8452ZM63.8178 39.0392V43.2941H64.9702C65.679 43.2941 66.1888 43.1833 66.4991 42.9395C67.009 42.5628 67.2749 41.9423 67.2749 41.078C67.2749 40.1916 66.9646 39.571 66.3884 39.2608C66.0781 39.1278 65.6127 39.0392 64.9702 39.0392H63.8178Z" fill="#868686"/>
<path d="M71.1021 47.1058H74.0048C74.0048 47.9258 74.0717 48.5019 74.2044 48.8344C74.4927 49.4992 75.0464 49.8538 75.8446 49.8538C76.3983 49.8538 76.8638 49.6987 77.2185 49.3663C77.5507 49.0338 77.7283 48.5463 77.7283 47.9036C77.7283 47.1723 77.4844 46.6182 77.0189 46.2415C76.8194 46.0642 76.4652 45.8869 75.9998 45.6875C75.9329 45.6653 75.3567 45.4437 74.2269 45.0004C73.2735 44.6237 72.5866 44.1583 72.1212 43.6043C71.545 42.8951 71.2572 41.9865 71.2572 40.8785C71.2572 39.4158 71.7226 38.3077 72.6535 37.5543C73.4287 36.9116 74.5371 36.6013 75.9329 36.6013C77.9054 36.6013 79.2353 37.2218 79.8998 38.485C80.2325 39.0834 80.3877 39.9034 80.3877 40.9006H77.5288C77.5068 40.3688 77.4624 39.9255 77.3292 39.6153C77.1077 39.0169 76.6204 38.7066 75.8666 38.7066C75.2904 38.7066 74.8694 38.8839 74.5816 39.2385C74.3376 39.5488 74.2044 39.9477 74.2044 40.4574C74.2044 41.0779 74.4039 41.5876 74.803 41.9422C75.0909 42.2081 75.5788 42.4741 76.2876 42.7622C77.418 43.1832 78.1937 43.5157 78.6148 43.7372C79.5012 44.1805 80.0993 44.7789 80.4096 45.488C80.6536 46.0199 80.7643 46.6626 80.7643 47.4604C80.7643 48.9673 80.3433 50.0976 79.5012 50.8289C78.6811 51.5824 77.418 51.9369 75.7114 51.9369C74.2044 51.9369 73.052 51.5824 72.2763 50.8954C71.8553 50.5186 71.5675 50.0533 71.3679 49.4992C71.1909 48.9452 71.1021 48.236 71.1021 47.3939V47.1058Z" fill="#868686"/>
<path d="M90.383 36.8452H94.1728L97.9845 51.6268H94.8372L94.1503 48.4799H90.2722L89.5853 51.6268H86.4824L90.383 36.8452ZM92.2222 39.3273L90.7596 46.1086H93.6629L92.2222 39.3273Z" fill="#868686"/>
<path d="M98.8398 36.8452H101.81V49.1669H107.128V51.6268H98.8398V36.8452Z" fill="#868686"/>
<path d="M106.525 36.8452H109.45L111.09 48.0367L112.819 36.8452H115.744L117.562 48.0367L119.135 36.8452H122.016L119.29 51.6268H115.944L114.259 40.7677L112.597 51.6268H109.251L106.525 36.8452Z" fill="#868686"/>
<path d="M125.173 36.8452H128.963L132.774 51.6268H129.628L128.941 48.4799H125.063L124.376 51.6268H121.273L125.173 36.8452ZM127.013 39.3273L125.55 46.1086H128.453L127.013 39.3273Z" fill="#868686"/>
<path d="M131.277 36.8452H134.601L136.662 42.7401L138.723 36.8452H141.914L138.08 45.8205V51.6268H135.111V45.8205L131.277 36.8452Z" fill="#868686"/>
<path d="M141.763 47.1058H144.666C144.666 47.9258 144.732 48.5019 144.866 48.8344C145.153 49.4992 145.708 49.8538 146.505 49.8538C147.06 49.8538 147.525 49.6987 147.879 49.3663C148.212 49.0338 148.389 48.5463 148.389 47.9036C148.389 47.1723 148.145 46.6182 147.68 46.2415C147.481 46.0642 147.126 45.8869 146.66 45.6875C146.594 45.6653 146.018 45.4437 144.888 45.0004C143.935 44.6237 143.248 44.1583 142.782 43.6043C142.206 42.8951 141.918 41.9865 141.918 40.8785C141.918 39.4158 142.383 38.3077 143.314 37.5543C144.09 36.9116 145.198 36.6013 146.594 36.6013C148.566 36.6013 149.896 37.2218 150.561 38.485C150.893 39.0834 151.048 39.9034 151.048 40.9006H148.189C148.167 40.3688 148.123 39.9255 147.99 39.6153C147.768 39.0169 147.281 38.7066 146.527 38.7066C145.951 38.7066 145.53 38.8839 145.242 39.2385C144.998 39.5488 144.866 39.9477 144.866 40.4574C144.866 41.0779 145.065 41.5876 145.464 41.9422C145.752 42.2081 146.239 42.4741 146.948 42.7622C148.079 43.1832 148.854 43.5157 149.275 43.7372C150.162 44.1805 150.761 44.7789 151.07 45.488C151.314 46.0199 151.425 46.6626 151.425 47.4604C151.425 48.9673 151.004 50.0976 150.162 50.8289C149.342 51.5824 148.079 51.9369 146.372 51.9369C144.866 51.9369 143.713 51.5824 142.938 50.8954C142.516 50.5186 142.228 50.0533 142.029 49.4992C141.852 48.9452 141.763 48.236 141.763 47.3939V47.1058Z" fill="#868686"/>
<path d="M158.03 36.8452H162.418C163.858 36.8452 164.9 37.0447 165.521 37.4435C166.141 37.8425 166.607 38.4186 166.917 39.15C167.16 39.7705 167.293 40.4797 167.293 41.2553C167.293 42.4299 167.028 43.3828 166.473 44.1363C165.875 45.0005 164.9 45.5103 163.571 45.6432C163.216 45.6876 162.706 45.7097 162.019 45.7097H160.999V51.6268H158.03V36.8452ZM160.977 39.0392V43.5158H161.93C162.662 43.5158 163.171 43.405 163.46 43.2055C163.992 42.8509 164.257 42.2082 164.257 41.2775C164.257 40.3024 163.969 39.6375 163.393 39.3051C163.105 39.1278 162.595 39.0392 161.864 39.0392H160.977Z" fill="#868686"/>
<path d="M168.321 36.8452H173.153C174.548 36.8452 175.546 37.0447 176.144 37.3992C177.186 38.0641 177.718 39.1943 177.718 40.7899C177.718 42.7622 176.92 43.9368 175.302 44.3136C176.255 44.4465 176.898 44.8455 177.208 45.5103C177.43 45.9757 177.563 46.6405 177.607 47.5269C177.629 47.7264 177.651 48.3026 177.673 49.2777C177.696 49.9647 177.74 50.4523 177.806 50.696C177.851 50.962 177.984 51.2722 178.205 51.6268H175.058C174.948 51.4274 174.837 51.0728 174.77 50.5852C174.726 50.2528 174.704 49.4771 174.659 48.2805C174.615 47.3718 174.571 46.7735 174.482 46.441C174.327 45.887 174.017 45.5546 173.507 45.4659C173.263 45.3995 172.909 45.3773 172.465 45.3773H171.291V51.6268H168.321V36.8452ZM171.291 39.0392V43.2941H172.443C173.153 43.2941 173.662 43.1833 173.972 42.9395C174.482 42.5628 174.748 41.9423 174.748 41.078C174.748 40.1916 174.438 39.571 173.862 39.2608C173.551 39.1278 173.086 39.0392 172.443 39.0392H171.291Z" fill="#868686"/>
<path d="M183.918 36.5571C186.001 36.5571 187.397 37.3106 188.128 38.8397C188.483 39.6154 188.705 40.5905 188.816 41.7872C188.86 42.4299 188.882 43.2055 188.882 44.1141C188.882 46.4189 188.683 48.1475 188.262 49.2777C187.619 51.0506 186.134 51.9592 183.807 51.9592C181.525 51.9592 180.039 51.0285 179.397 49.2113C178.998 48.1032 178.799 46.4189 178.799 44.1806C178.799 42.8066 178.865 41.6321 179.02 40.6569C179.264 39.1722 179.84 38.0641 180.815 37.3771C181.569 36.8231 182.611 36.5571 183.918 36.5571ZM183.807 38.6846C183.054 38.6846 182.544 39.0614 182.256 39.8148C181.99 40.5461 181.857 41.9866 181.857 44.1806C181.857 46.153 181.968 47.5491 182.167 48.3912C182.433 49.3664 182.965 49.8539 183.807 49.8539C184.716 49.8539 185.27 49.3442 185.513 48.3248C185.713 47.4826 185.802 46.1973 185.802 44.4466C185.802 42.1861 185.691 40.657 185.425 39.8813C185.181 39.0835 184.627 38.6846 183.807 38.6846Z" fill="#868686"/>
<path d="M189.667 47.1058H192.57C192.57 47.9258 192.636 48.5019 192.769 48.8344C193.057 49.4992 193.611 49.8538 194.409 49.8538C194.963 49.8538 195.429 49.6987 195.783 49.3663C196.116 49.0338 196.293 48.5463 196.293 47.9036C196.293 47.1723 196.049 46.6182 195.584 46.2415C195.384 46.0642 195.03 45.8869 194.564 45.6875C194.498 45.6653 193.922 45.4437 192.791 45.0004C191.839 44.6237 191.152 44.1583 190.686 43.6043C190.11 42.8951 189.822 41.9865 189.822 40.8785C189.822 39.4158 190.287 38.3077 191.218 37.5543C191.994 36.9116 193.102 36.6013 194.498 36.6013C196.47 36.6013 197.8 37.2218 198.465 38.485C198.797 39.0834 198.952 39.9034 198.952 40.9006H196.094C196.071 40.3688 196.027 39.9255 195.894 39.6153C195.673 39.0169 195.185 38.7066 194.432 38.7066C193.855 38.7066 193.434 38.8839 193.146 39.2385C192.902 39.5488 192.769 39.9477 192.769 40.4574C192.769 41.0779 192.969 41.5876 193.367 41.9422C193.656 42.2081 194.143 42.4741 194.853 42.7622C195.982 43.1832 196.758 43.5157 197.179 43.7372C198.066 44.1805 198.664 44.7789 198.975 45.488C199.218 46.0199 199.329 46.6626 199.329 47.4604C199.329 48.9673 198.908 50.0976 198.066 50.8289C197.246 51.5824 195.982 51.9369 194.276 51.9369C192.769 51.9369 191.617 51.5824 190.841 50.8954C190.42 50.5186 190.132 50.0533 189.933 49.4992C189.755 48.9452 189.667 48.236 189.667 47.3939V47.1058Z" fill="#868686"/>
<path d="M200.589 36.8452H204.977C206.417 36.8452 207.459 37.0447 208.08 37.4435C208.7 37.8425 209.165 38.4186 209.475 39.15C209.719 39.7705 209.853 40.4797 209.853 41.2553C209.853 42.4299 209.586 43.3828 209.032 44.1363C208.434 45.0005 207.459 45.5103 206.129 45.6432C205.774 45.6876 205.265 45.7097 204.578 45.7097H203.559V51.6268H200.589V36.8452ZM203.537 39.0392V43.5158H204.489C205.221 43.5158 205.731 43.405 206.018 43.2055C206.55 42.8509 206.816 42.2082 206.816 41.2775C206.816 40.3024 206.528 39.6375 205.952 39.3051C205.664 39.1278 205.154 39.0392 204.423 39.0392H203.537Z" fill="#868686"/>
<path d="M210.88 36.8452H219.146V39.3051H213.85V42.7845H218.814V45.1778H213.85V49.1891H219.346V51.6268H210.88V36.8452Z" fill="#868686"/>
<path d="M220.413 36.8452H225.244C226.64 36.8452 227.637 37.0447 228.236 37.3992C229.277 38.0641 229.809 39.1943 229.809 40.7899C229.809 42.7622 229.011 43.9368 227.394 44.3136C228.346 44.4465 228.989 44.8455 229.299 45.5103C229.521 45.9757 229.654 46.6405 229.698 47.5269C229.72 47.7264 229.743 48.3026 229.765 49.2777C229.787 49.9647 229.831 50.4523 229.898 50.696C229.942 50.962 230.075 51.2722 230.296 51.6268H227.15C227.039 51.4274 226.928 51.0728 226.862 50.5852C226.817 50.2528 226.795 49.4771 226.751 48.2805C226.707 47.3718 226.662 46.7735 226.573 46.441C226.418 45.887 226.108 45.5546 225.598 45.4659C225.355 45.3995 225 45.3773 224.557 45.3773H223.382V51.6268H220.413V36.8452ZM223.382 39.0392V43.2941H224.535C225.244 43.2941 225.753 43.1833 226.064 42.9395C226.573 42.5628 226.839 41.9423 226.839 41.078C226.839 40.1916 226.529 39.571 225.953 39.2608C225.643 39.1278 225.177 39.0392 224.535 39.0392H223.382Z" fill="#868686"/>
<path d="M232.106 36.5515C232.347 36.5515 232.583 36.6029 232.81 36.7109C233.031 36.8137 233.231 36.9576 233.401 37.1427C233.704 37.4819 233.858 37.8777 233.858 38.3352C233.858 38.5871 233.807 38.8287 233.704 39.06C233.602 39.2913 233.458 39.4866 233.267 39.6562C232.928 39.9646 232.532 40.1137 232.075 40.1137C231.823 40.1137 231.581 40.0623 231.35 39.9595C231.119 39.8567 230.923 39.7128 230.754 39.5226C230.445 39.1885 230.296 38.7875 230.296 38.3198C230.296 37.8058 230.492 37.374 230.888 37.0142C231.221 36.7057 231.627 36.5515 232.106 36.5515ZM232.054 36.8394C231.854 36.8394 231.653 36.8805 231.468 36.9679C231.278 37.0553 231.108 37.1787 230.965 37.3329C230.707 37.6156 230.579 37.9497 230.579 38.3352C230.579 38.546 230.625 38.7464 230.713 38.9417C230.795 39.1371 230.918 39.3016 231.077 39.4455C231.36 39.7025 231.694 39.831 232.075 39.831C232.291 39.831 232.491 39.7847 232.686 39.6974C232.877 39.6151 233.046 39.4918 233.19 39.3324C233.447 39.0497 233.57 38.7156 233.57 38.3249C233.57 37.8931 233.406 37.523 233.077 37.2249C232.794 36.9679 232.455 36.8394 232.054 36.8394ZM231.452 37.3585H232.126C232.316 37.3585 232.455 37.3791 232.537 37.4305C232.686 37.5179 232.764 37.6721 232.764 37.8829C232.764 38.0268 232.727 38.145 232.66 38.2272C232.625 38.2632 232.568 38.3044 232.491 38.3352C232.563 38.3661 232.62 38.3969 232.656 38.438C232.707 38.4997 232.737 38.5922 232.743 38.7258C232.748 38.767 232.753 38.8543 232.753 38.9829C232.758 39.0754 232.764 39.1371 232.774 39.1679C232.779 39.1988 232.804 39.2502 232.841 39.3067H232.378C232.352 39.2758 232.337 39.2244 232.327 39.1576C232.321 39.1165 232.316 39.0137 232.311 38.8595C232.306 38.7413 232.301 38.6641 232.285 38.6231C232.27 38.5562 232.234 38.5202 232.173 38.5048C232.136 38.4997 232.09 38.4946 232.029 38.4946H231.89V39.3067H231.452V37.3585ZM231.89 37.6773V38.1913H232.029C232.121 38.1913 232.188 38.1759 232.229 38.1501C232.291 38.1039 232.321 38.0268 232.321 37.924C232.321 37.8109 232.285 37.739 232.213 37.703C232.177 37.6824 232.116 37.6773 232.029 37.6773H231.89Z" fill="#868686"/>
</g>
<defs>
<clipPath id="clip0_460_335">
<rect width="233.893" height="52" fill="white"/>
</clipPath>
</defs>
</svg>
